:FULLY-SPECIFIED
:FORCE-ALL-JOINTS-BE-3DOF
:DEGREES
679
root 5.4298 17.8999 1.42658 16.029 -32.4916 1.86726
lfemur -30.6186 13.7046 -1.74006
ltibia 82.7218 -0 0
lfoot -14.2218 8.54774 -1.36407
ltoes 27.0476 -0 0
rfemur -28.7618 -17.4861 18.5699
rtibia 31.1937 -0 0
rfoot 8.63465 -2.84365 0.961342
rtoes 0.945134 -0 0
lowerback 1.20203 -3.72844 -4.39701
upperback -1.80159 -5.14102 -1.68033
thorax -2.25672 -2.50897 0.839596
lowerneck -8.07435 -5.55988 -0.348581
upperneck 2.79515 -7.69928 5.50821
head 2.55284 -3.66866 1.45743
lclavicle 1.86805e-14 -1.79781e-15 9.18181e-30
lhumerus 24.7376 -50.6214 36.0745
lradius 75.0996 -0 0
lwrist 28.687 0 0
lhand -14.5984 -1.52798 0.40318
lfingers 7.12502 -0 0
lthumb 11.5397 27.9042 0.340915
rclavicle 1.86805e-14 -1.79781e-15 9.18181e-30
rhumerus -37.8018 -8.34651 -39.6826
rradius 81.0892 -0 0
rwrist -12.1617 0 0
rhand -32.8497 -45.8095 -0.133948
rfingers 7.12502 -0 0
rthumb -6.0685 -75.6811 -0.131452
680
root 5.42444 18.0175 1.64472 15.9279 -34.6604 1.87069
lfemur -31.8537 13.3242 0.23392
ltibia 85.8027 -0 0
lfoot -12.6131 8.0249 -1.33451
ltoes 27.6968 -0 0
rfemur -26.799 -16.2241 17.6297
rtibia 28.6553 -0 0
rfoot 9.89322 -2.37484 0.94061
rtoes 0.518183 -0 0
lowerback 1.2922 -3.66273 -4.25502
upperback -1.81664 -5.0586 -1.73801
thorax -2.34459 -2.46959 0.709148
lowerneck -7.95221 -5.49769 -0.324387
upperneck 2.84108 -7.61661 5.45367
head 2.53904 -3.63028 1.4428
lclavicle 1.47986e-14 -3.57416e-16 8.98546e-30
lhumerus 25.5286 -48.3215 33.6448
lradius 75.1276 -0 0
lwrist 28.8932 0 0
lhand -15.302 -1.87788 0.394533
lfingers 7.12502 -0 0
lthumb 10.8619 27.5972 0.333605
rclavicle 1.47986e-14 -3.57416e-16 8.98546e-30
rhumerus -37.168 -8.4042 -37.5494
rradius 82.6633 -0 0
rwrist -11.8397 0 0
rhand -33.0762 -45.4491 -0.131081
rfingers 7.12502 -0 0
rthumb -6.28721 -75.3148 -0.128638
681
root 5.41917 18.1338 1.86023 15.8252 -36.8033 1.87887
lfemur -33.0846 12.9892 2.18916
ltibia 88.8465 -0 0
lfoot -11.0241 7.50936 -1.2909
ltoes 28.3382 -0 0
rfemur -24.8931 -14.948 16.7511
rtibia 26.1474 -0 0
rfoot 11.1364 -1.91223 0.910022
rtoes 0.0963253 -0 0
lowerback 1.38144 -3.59803 -4.11466
upperback -1.83159 -4.97719 -1.79501
thorax -2.4315 -2.43087 0.580212
lowerneck -7.83152 -5.4363 -0.300355
upperneck 2.88637 -7.53489 5.39987
head 2.5254 -3.59236 1.42834
lclavicle 1.09634e-14 1.06567e-15 8.69564e-30
lhumerus 26.1386 -46.0305 31.3911
lradius 75.1552 -0 0
lwrist 29.0969 0 0
lhand -15.997 -2.22345 0.381772
lfingers 7.12502 -0 0
lthumb 10.1922 27.294 0.322818
rclavicle 1.09634e-14 1.06567e-15 8.69564e-30
rhumerus -36.5443 -8.48408 -35.4423
rradius 84.2185 -0 0
rwrist -11.5217 0 0
rhand -33.3 -45.093 -0.126849
rfingers 7.12502 -0 0
rthumb -6.50328 -74.9529 -0.124485
682
root 5.41402 18.248 2.07208 15.7208 -38.9096 1.89196
lfemur -34.3038 12.6999 4.11547
ltibia 91.8386 -0 0
lfoot -9.46257 7.00398 -1.23413
ltoes 28.9687 -0 0
rfemur -23.0501 -13.6672 15.9353
rtibia 23.6822 -0 0
rfoot 12.3582 -1.45824 0.870181
rtoes -0.318318 0 0
lowerback 1.46931 -3.53464 -3.97659
upperback -1.84636 -4.89717 -1.85105
thorax -2.517 -2.39301 0.453419
lowerneck -7.71287 -5.376 -0.276608
upperneck 2.9308 -7.45452 5.34705
head 2.51198 -3.55509 1.41412
lclavicle 7.1935e-15 2.46453e-15 8.31791e-30
lhumerus 26.5929 -43.7646 29.2948
lradius 75.1824 -0 0
lwrist 29.2971 0 0
lhand -16.6801 -2.56296 0.365144
lfingers 7.12502 -0 0
lthumb 9.53403 26.9961 0.308761
rclavicle 7.1935e-15 2.46453e-15 8.31791e-30
rhumerus -35.9343 -8.58466 -33.3715
rradius 85.7472 -0 0
rwrist -11.2091 0 0
rhand -33.52 -44.7431 -0.121334
rfingers 7.12502 -0 0
rthumb -6.71563 -74.5972 -0.119073
683
root 5.40901 18.3598 2.2792 15.615 -40.969 1.91006
lfemur -35.5036 12.456 6.00261
ltibia 94.764 -0 0
lfoot -7.93641 6.51154 -1.16533
ltoes 29.5851 -0 0
rfemur -21.2756 -12.391 15.183
rtibia 21.2719 -0 0
rfoot 13.5524 -1.0153 0.82188
rtoes -0.723726 0 0
lowerback 1.55536 -3.47287 -3.84152
upperback -1.86087 -4.81895 -1.90586
thorax -2.60068 -2.35617 0.329398
lowerneck -7.59685 -5.31709 -0.253271
upperneck 2.97417 -7.3759 5.29547
head 2.49885 -3.51865 1.40021
lclavicle 3.50753e-15 3.83224e-15 7.8596e-30
lhumerus 26.9139 -41.5395 27.3413
lradius 75.209 -0 0
lwrist 29.4929 0 0
lhand -17.3479 -2.8947 0.344974
lfingers 7.12502 -0 0
lthumb 8.89057 26.705 0.29171
rclavicle 3.50753e-15 3.83224e-15 7.8596e-30
rhumerus -35.3416 -8.704 -31.3474
rradius 87.2419 -0 0
rwrist -10.9034 0 0
rhand -33.735 -44.401 -0.114644
rfingers 7.12502 -0 0
rthumb -6.92321 -74.2495 -0.112507
684
root 5.40415 18.4684 2.48056 15.508 -42.971 1.93321
lfemur -36.6762 12.256 7.84029
ltibia 97.608 -0 0
lfoot -6.45338 6.03474 -1.0859
ltoes 30.1844 -0 0
rfemur -19.575 -11.1294 14.4939
rtibia 18.9287 -0 0
rfoot 14.713 -0.585739 0.766086
rtoes -1.11785 0 0
lowerback 1.63915 -3.41301 -3.71013
upperback -1.87506 -4.74292 -1.95916
thorax -2.6821 -2.32053 0.208783
lowerneck -7.48406 -5.25987 -0.230472
upperneck 3.01625 -7.29943 5.2454
head 2.48608 -3.48323 1.38668
lclavicle -7.58363e-17 5.16187e-15 7.3297e-30
lhumerus 27.1218 -39.3698 25.5187
lradius 75.2348 -0 0
lwrist 29.6832 0 0
lhand -17.997 -3.21695 0.32166
lfingers 7.12502 -0 0
lthumb 8.26512 26.4222 0.272002
rclavicle -7.58363e-17 5.16187e-15 7.3297e-30
rhumerus -34.7697 -8.83979 -29.3802
rradius 88.695 -0 0
rwrist -10.6062 0 0
rhand -33.9439 -44.0684 -0.106909
rfingers 7.12502 -0 0
rthumb -7.12498 -73.9114 -0.104917
685
root 5.39949 18.5733 2.67511 15.4 -44.9053 1.96134
lfemur -37.8141 12.0977 9.6182
ltibia 100.356 -0 0
lfoot -5.02126 5.57618 -0.997464
ltoes 30.7634 -0 0
rfemur -17.9533 -9.89205 13.8672
rtibia 16.6648 -0 0
rfoot 15.8338 -0.171879 0.703929
rtoes -1.49876 0 0
lowerback 1.72023 -3.35536 -3.58311
upperback -1.88882 -4.66948 -2.01067
thorax -2.76084 -2.28626 0.0922049
lowerneck -7.37506 -5.20463 -0.208339
upperneck 3.05684 -7.22552 5.19709
head 2.47373 -3.44901 1.3736
lclavicle -3.53794e-15 6.44652e-15 6.73875e-30
lhumerus 27.2344 -37.27 23.8183
lradius 75.2598 -0 0
lwrist 29.8671 0 0
lhand -18.6239 -3.52803 0.295671
lfingers 7.12502 -0 0
lthumb 7.66093 26.1492 0.250029
rclavicle -3.53794e-15 6.44652e-15 6.73875e-30
rhumerus -34.2218 -8.98933 -27.4803
rradius 90.0989 -0 0
rwrist -10.3191 0 0
rhand -34.1459 -43.747 -0.0982807
rfingers 7.12502 -0 0
rthumb -7.31993 -73.5847 -0.0964491
686
root 5.39503 18.674 2.8618 15.2915 -46.7614 1.99427
lfemur -38.9096 11.9784 11.3261
ltibia 102.992 -0 0
lfoot -3.64775 5.13838 -0.901859
ltoes 31.319 -0 0
rfemur -16.4155 -8.68887 13.3014
rtibia 14.4923 -0 0
rfoot 16.9089 0.224034 0.636685
rtoes -1.86415 0 0
lowerback 1.79815 -3.30021 -3.46115
upperback -1.9021 -4.59902 -2.0601
thorax -2.83645 -2.25353 -0.0197019
lowerneck -7.27046 -5.15166 -0.187003
upperneck 3.09572 -7.15456 5.15079
head 2.46187 -3.41617 1.36104
lclavicle -6.86014e-15 7.67924e-15 6.09869e-30
lhumerus 27.2679 -35.2533 22.2339
lradius 75.2837 -0 0
lwrist 30.0435 0 0
lhand -19.2254 -3.82625 0.267533
lfingers 7.12502 -0 0
lthumb 7.08126 25.8875 0.226239
rclavicle -6.86014e-15 7.67924e-15 6.09869e-30
rhumerus -33.7007 -9.14963 -25.6578
rradius 91.446 -0 0
rwrist -10.0436 0 0
rhand -34.3395 -43.4387 -0.08894
rfingers 7.12502 -0 0
rthumb -7.50689 -73.2713 -0.0872824
687
root 5.39081 18.7699 3.03957 15.1831 -48.5288 2.03167
lfemur -39.9554 11.8946 12.9537
ltibia 105.503 -0 0
lfoot -2.34056 4.72373 -0.801093
ltoes 31.8482 -0 0
rfemur -14.9667 -7.52965 12.7947
rtibia 12.4236 -0 0
rfoot 17.9322 0.599811 0.565759
rtoes -2.21209 0 0
lowerback 1.87245 -3.24785 -3.34496
upperback -1.91479 -4.53193 -2.10719
thorax -2.90852 -2.22249 -0.126304
lowerneck -7.17085 -5.10126 -0.166597
upperneck 3.13268 -7.08696 5.10675
head 2.45058 -3.38491 1.34907
lclavicle -1.00238e-14 8.85313e-15 5.42275e-30
lhumerus 27.237 -33.3329 20.7614
lradius 75.3065 -0 0
lwrist 30.2116 0 0
lhand -19.7981 -4.10995 0.237829
lfingers 7.12502 -0 0
lthumb 6.52937 25.6385 0.201125
rclavicle -1.00238e-14 8.85313e-15 5.42275e-30
rhumerus -33.2093 -9.31741 -23.9229
rradius 92.7289 -0 0
rwrist -9.7813 0 0
rhand -34.5239 -43.1452 -0.079077
rfingers 7.12502 -0 0
rthumb -7.68488 -72.973 -0.0776032
688
root 5.38684 18.8604 3.20739 15.0754 -50.1971 2.07302
lfemur -40.9443 11.8421 14.491
ltibia 107.874 -0 0
lfoot -1.10732 4.33453 -0.697318
ltoes 32.3476 -0 0
rfemur -13.6118 -6.42411 12.3447
rtibia 10.4708 -0 0
rfoot 18.8978 0.953317 0.49266
rtoes -2.54053 0 0
lowerback 1.94268 -3.19856 -3.23521
upperback -1.92682 -4.46861 -2.15165
thorax -2.97659 -2.19332 -0.226966
lowerneck -7.0768 -5.05371 -0.147255
upperneck 3.16753 -7.02312 5.06522
head 2.43991 -3.3554 1.33777
lclavicle -1.30102e-14 9.96126e-15 4.7252e-30
lhumerus 27.1553 -31.5213 19.3988
lradius 75.3281 -0 0
lwrist 30.3702 0 0
lhand -20.3385 -4.37747 0.20719
lfingers 7.12502 -0 0
lthumb 6.0084 25.4036 0.175213
rclavicle -1.30102e-14 9.96126e-15 4.7252e-30
rhumerus -32.7502 -9.4892 -22.2858
rradius 93.9399 -0 0
rwrist -9.53365 0 0
rhand -34.6979 -42.8681 -0.0689003
rfingers 7.12502 -0 0
rthumb -7.85284 -72.6914 -0.0676161
689
root 5.38314 18.945 3.3642 14.9695 -51.756 2.11761
lfemur -41.8691 11.8165 15.9279
ltibia 110.088 -0 0
lfoot 0.0443507 3.97295 -0.592803
ltoes 32.8142 -0 0
rfemur -12.3561 -5.38184 11.9489
rtibia 8.646 -0 0
rfoot 19.7995 1.28248 0.418983
rtoes -2.84742 0 0
lowerback 2.00839 -3.15262 -3.13262
upperback -1.93811 -4.40945 -2.1932
thorax -3.04025 -2.16617 -0.321054
lowerneck -6.98892 -5.00931 -0.129112
upperneck 3.20004 -6.96345 5.02645
head 2.42993 -3.32782 1.32721
lclavicle -1.58007e-14 1.09967e-14 4.0212e-30
lhumerus 27.0355 -29.8303 18.1457
lradius 75.3482 -0 0
lwrist 30.5184 0 0
lhand -20.8434 -4.62721 0.176275
lfingers 7.12502 -0 0
lthumb 5.52182 25.1845 0.149078
rclavicle -1.58007e-14 1.09967e-14 4.0212e-30
rhumerus -32.3256 -9.66135 -20.7566
rradius 95.0714 -0 0
rwrist -9.30226 0 0
rhand -34.8604 -42.6093 -0.058631
rfingers 7.12502 -0 0
rthumb -8.00974 -72.4283 -0.0575383
690
root 5.37974 19.0231 3.50895 14.8665 -53.195 2.16446
lfemur -42.7231 11.8131 17.2544
ltibia 112.133 -0 0
lfoot 1.10685 3.64111 -0.489892
ltoes 33.245 -0 0
rfemur -11.2052 -4.41228 11.6045
rtibia 6.96153 -0 0
rfoot 20.6316 1.58526 0.346381
rtoes -3.13072 0 0
lowerback 2.06912 -3.11033 -3.03788
upperback -1.94857 -4.35485 -2.23156
thorax -3.09905 -2.1412 -0.407932
lowerneck -6.90779 -4.96834 -0.112305
upperneck 3.23001 -6.90835 4.9907
head 2.42072 -3.30237 1.31745
lclavicle -1.83767e-14 1.19525e-14 3.32657e-30
lhumerus 26.8894 -28.2717 17.0035
lradius 75.3668 -0 0
lwrist 30.6552 0 0
lhand -21.3093 -4.85745 0.145793
lfingers 7.12502 -0 0
lthumb 5.07274 24.9823 0.123302
rclavicle -1.83767e-14 1.19525e-14 3.32657e-30
rhumerus -31.9377 -9.83013 -19.3454
rradius 96.116 -0 0
rwrist -9.08865 0 0
rhand -35.0103 -42.3704 -0.0484998
rfingers 7.12502 -0 0
rthumb -8.15453 -72.1854 -0.0475958
